#!OML:ASF I:\Actors\actors\Patient Classification 1\Patient 1\Session 1\Subject1.ASF
:FULLY-SPECIFIED
:DEGREES
1267
root 0.242551 17.6527 8.00478 14.9608 -0.249918 -8.74345
lowerback 14.9959 -0.0616241 7.08669
upperback -1.07058 1.22926 0.284024
thorax -9.48372 0.233807 -3.98929
lowerneck -23.0791 -2.50951 2.41644
upperneck 13.7565 -5.1682 5.11038
head 8.12585 -1.76193 0.642268
rclavicle 1.78906e-015 1.03368e-014
rhumerus -16.601 52.2842 -65.995
rradius 142.238
rwrist -33.9083
rhand 72.374 -48.4562
rfingers 7.12502
rthumb 72.5738 26.6181
lclavicle 1.78906e-015 1.03368e-014
lhumerus -43.5545 -57.994 92.8778
lradius 142.101
lwrist 28.8712
lhand -4.28336 -38.4686
lfingers 7.12502
lthumb 21.4818 -9.63972
rfemur -15.5089 22.055 20.9175
rtibia 8.08883
rfoot -10.9801 -24.5981
rtoes -1.44536
lfemur -10.8441 -32.4773 -2.60306
ltibia -0.123887
lfoot -10.2507 43.0384
ltoes -0.855535
1268
root 0.247822 17.6449 8.00277 14.8472 -0.115047 -9.26203
lowerback 15.1797 -0.135977 7.68539
upperback -1.2316 1.2844 0.487732
thorax -9.75839 0.219739 -4.12384
lowerneck -23.7876 -2.83962 1.44293
upperneck 13.0113 -5.51772 6.34452
head 8.06707 -1.85897 1.1599
rclavicle -2.78299e-015 2.06736e-014
rhumerus -16.9034 52.6074 -66.3655
rradius 142.336
rwrist -33.6521
rhand 72.5836 -49.0271
rfingers 7.12502
rthumb 72.4678 26.6216
lclavicle -2.78299e-015 2.06736e-014
lhumerus -43.9453 -58.0765 93.3743
lradius 142.045
lwrist 28.6268
lhand -4.17325 -38.3024
lfingers 7.12502
lthumb 21.5876 -9.48566
rfemur -15.2722 21.8941 21.6473
rtibia 8.02725
rfoot -10.9981 -24.4074
rtoes -1.54556
lfemur -10.6091 -32.3471 -2.10875
ltibia -0.260424
lfoot -10.036 42.9074
ltoes -1.32979
1269
root 0.245511 17.6448 8.00525 14.9226 -0.156543 -9.14154
lowerback 15.0966 -0.0993539 7.45817
upperback -1.39202 1.29795 0.546618
thorax -9.89197 0.230831 -3.93366
lowerneck -24.1622 -3.0071 1.1264
upperneck 11.9533 -5.71422 7.10118
head 7.81493 -1.91798 1.43555
rclavicle -1.70955e-014 3.81667e-014
rhumerus -17.0547 52.9573 -66.443
rradius 142.397
rwrist -33.3909
rhand 72.5242 -49.4698
rfingers 7.12502
rthumb 72.4981 26.0168
lclavicle -1.70955e-014 3.81667e-014
lhumerus -44.3951 -58.1833 93.7008
lradius 141.972
lwrist 28.4148
lhand -4.18109 -38.2812
lfingers 7.12502
lthumb 21.5801 -9.46358
rfemur -15.3112 21.9306 21.4683
rtibia 7.94435
rfoot -11.0199 -24.4654
rtoes -1.33099
lfemur -10.6279 -32.535 -2.20537
ltibia -0.326824
lfoot -10.135 43.0917
ltoes -1.02798
1270
root 0.240492 17.6477 8.00978 15.05 -0.274088 -8.80753
lowerback 14.933 -0.0229178 6.96106
upperback -1.54363 1.30094 0.540109
thorax -9.97256 0.252743 -3.65819
lowerneck -24.0648 -2.79986 2.0556
upperneck 10.5546 -5.53484 6.6418
head 7.28342 -1.89215 1.16384
rclavicle -6.55989e-015 -2.38542e-015
rhumerus -16.7033 53.5311 -65.8075
rradius 142.412
rwrist -33.2505
rhand 72.1761 -48.8259
rfingers 7.12502
rthumb 72.6721 25.6997
lclavicle -6.55989e-015 -2.38542e-015
lhumerus -44.6285 -58.2632 93.6071
lradius 141.963
lwrist 28.4371
lhand -4.03941 -38.3617
lfingers 7.12502
lthumb 21.7161 -9.55981
rfemur -15.4319 22.0976 20.9808
rtibia 7.8374
rfoot -10.9795 -24.6426
rtoes -1.1834
lfemur -10.7355 -32.8148 -2.50059
ltibia -0.348139
lfoot -10.2921 43.3883
ltoes -0.79513
1271
root 0.244717 17.6433 8.00848 14.9655 -0.135243 -9.17618
lowerback 15.0467 -0.0676075 7.44711
upperback -1.64998 1.35962 0.667009
thorax -10.1468 0.248197 -3.81096
lowerneck -24.1507 -2.6878 2.59834
upperneck 9.45578 -5.43703 6.42427
head 6.90745 -1.88542 1.02324
rclavicle 3.04141e-014 2.06736e-014
rhumerus -16.4362 53.9824 -65.1415
rradius 142.428
rwrist -33.2305
rhand 71.9682 -48.0083
rfingers 7.12502
rthumb 72.7737 25.934
lclavicle 3.04141e-014 2.06736e-014
lhumerus -44.6538 -58.3624 93.2366
lradius 142.015
lwrist 28.6919
lhand -3.86486 -38.6115
lfingers 7.12502
lthumb 21.8837 -9.829
rfemur -15.2157 22.086 21.4904
rtibia 7.68631
rfoot -10.906 -24.6616
rtoes -1.1864
lfemur -10.6184 -32.7586 -2.12066
ltibia -0.409451
lfoot -10.2047 43.2903
ltoes -1.05712
1272
root 0.249025 17.6396 8.00824 14.8869 -0.0150448 -9.54967
lowerback 15.1103 -0.118174 7.94135
upperback -1.73304 1.40906 0.803193
thorax -10.2676 0.240954 -3.95436
lowerneck -24.5296 -2.74639 2.36386
upperneck 8.87014 -5.49003 6.90827
head 6.79868 -1.88785 1.21172
rclavicle -1.43125e-014 6.36111e-015
rhumerus -16.8802 53.971 -65.3455
rradius 142.46
rwrist -33.1921
rhand 72.1893 -48.4236
rfingers 7.12502
rthumb 72.6656 26.1389
lclavicle -1.43125e-014 6.36111e-015
lhumerus -44.7069 -58.4634 92.9003
lradius 142.068
lwrist 28.8084
lhand -3.96202 -38.8804
lfingers 7.12502
lthumb 21.7904 -10.0871
rfemur -15.0305 22.0188 22.0063
rtibia 7.59197
rfoot -10.8655 -24.6171
rtoes -1.28825
lfemur -10.5116 -32.6359 -1.74035
ltibia -0.444143
lfoot -10.1959 43.1477
ltoes -1.0778
1273
root 0.249357 17.6394 8.01215 14.879 -0.0759949 -9.59068
lowerback 15.0127 -0.0945408 7.99036
upperback -1.80891 1.44986 0.855405
thorax -10.2916 0.256438 -3.93267
lowerneck -24.6628 -2.66919 2.35586
upperneck 8.2894 -5.36215 7.03214
head 6.62918 -1.83515 1.27118
rclavicle -4.96962e-015 -1.11319e-014
rhumerus -17.3106 53.9848 -65.559
rradius 142.473
rwrist -33.1798
rhand 72.3157 -48.562
rfingers 7.12502
rthumb 72.6029 26.3513
lclavicle -4.96962e-015 -1.11319e-014
lhumerus -44.7452 -58.5869 92.5893
lradius 142.136
lwrist 28.8154
lhand -4.04151 -38.873
lfingers 7.12502
lthumb 21.7141 -10.0709
rfemur -14.9885 22.0175 22.0632
rtibia 7.56811
rfoot -10.8655 -24.5531
rtoes -1.33649
lfemur -10.4353 -32.5859 -1.73714
ltibia -0.471294
lfoot -10.2434 43.1582
ltoes -1.01093
1274
root 0.251064 17.639 8.01507 14.8494 -0.142931 -9.61893
lowerback 14.9323 -0.0597507 8.08875
upperback -1.89064 1.51282 0.869336
thorax -10.3275 0.277526 -3.98624
lowerneck -24.6493 -2.57191 2.41477
upperneck 7.92823 -5.22 7.02984
head 6.50295 -1.77962 1.2805
rclavicle 7.7526e-015 4.01545e-014
rhumerus -17.4388 54.1065 -65.4206
rradius 142.46
rwrist -33.2058
rhand 72.3313 -48.047
rfingers 7.12502
rthumb 72.5951 26.9094
lclavicle 7.7526e-015 4.01545e-014
lhumerus -44.7227 -58.7356 92.2907
lradius 142.195
lwrist 28.8199
lhand -3.92039 -38.6067
lfingers 7.12502
lthumb 21.8304 -9.81805
rfemur -14.9377 22.0157 22.1097
rtibia 7.56226
rfoot -10.8407 -24.4777
rtoes -1.492
lfemur -10.3321 -32.5703 -1.7743
ltibia -0.505625
lfoot -10.2019 43.2038
ltoes -1.11103
1275
root 0.25372 17.6389 8.01756 14.7967 -0.15807 -9.61695
lowerback 14.8614 -0.039984 8.22718
upperback -1.94679 1.559 0.848779
thorax -10.3406 0.288652 -4.09629
lowerneck -24.4782 -2.51595 2.41715
upperneck 7.60409 -5.11537 7.05642
head 6.36859 -1.74345 1.30375
rclavicle 2.5842e-015 1.98785e-014
rhumerus -16.3644 54.8557 -63.9183
rradius 142.436
rwrist -33.4113
rhand 70.8635 -46.0521
rfingers 7.12502
rthumb 73.2811 24.6744
lclavicle 2.5842e-015 1.98785e-014
lhumerus -44.5517 -58.8699 91.952
lradius 142.194
lwrist 28.8154
lhand -3.89476 -38.507
lfingers 7.12502
lthumb 21.855 -9.72116
rfemur -14.8573 22.0181 22.132
rtibia 7.54755
rfoot -10.8011 -24.463
rtoes -1.65414
lfemur -10.2497 -32.5657 -1.84858
ltibia -0.501884
lfoot -10.1452 43.2048
ltoes -1.15953
1276
root 0.250113 17.6434 8.02325 14.8135 -0.294496 -9.22812
lowerback 14.6241 0.0579624 7.86035
upperback -1.94534 1.58503 0.718926
thorax -10.1993 0.32441 -4.03187
lowerneck -24.0045 -2.40492 2.4596
upperneck 7.10336 -4.91897 7.06741
head 6.12709 -1.67695 1.32838
rclavicle -1.0138e-014 -1.07344e-014
rhumerus -16.4839 54.6543 -63.8548
rradius 142.437
rwrist -33.4487
rhand 70.4977 -46.1525
rfingers 7.12502
rthumb 73.4368 23.4662
lclavicle -1.0138e-014 -1.07344e-014
lhumerus -43.8953 -59.0022 91.3208
lradius 142.124
lwrist 28.8481
lhand -3.75622 -38.6666
lfingers 7.12502
lthumb 21.988 -9.89633
rfemur -14.909 22.2035 21.626
rtibia 7.57495
rfoot -10.8601 -24.5962
rtoes -1.36527
lfemur -10.2634 -32.6088 -2.32432
ltibia -0.42764
lfoot -10.2668 43.2664
ltoes -0.864262
1277
root 0.23917 17.6505 8.03139 14.9237 -0.579477 -8.5011
lowerback 14.2175 0.254008 7.01232
upperback -1.90653 1.63166 0.491802
thorax -9.92145 0.400422 -3.80079
lowerneck -22.8232 -2.25342 2.40802
upperneck 6.05671 -4.58848 7.26718
head 5.60789 -1.56934 1.44712
rclavicle 3.77691e-015 -8.74653e-015
rhumerus -17.6073 53.6792 -64.9012
rradius 142.418
rwrist -33.3167
rhand 71.3519 -47.5921
rfingers 7.12502
rthumb 73.0636 24.5801
lclavicle 3.77691e-015 -8.74653e-015
lhumerus -42.5957 -59.1839 90.2511
lradius 141.991
lwrist 28.8391
lhand -3.58632 -38.7526
lfingers 7.12502
lthumb 22.1512 -10.0016
rfemur -15.1541 22.5314 20.6372
rtibia 7.68482
rfoot -10.9643 -24.8288
rtoes -1.02025
lfemur -10.3926 -32.7312 -3.11971
ltibia -0.300994
lfoot -10.4859 43.4537
ltoes -0.51502
1278
root 0.232093 17.6518 8.03697 14.9278 -0.746415 -8.12589
lowerback 13.9086 0.413841 6.65598
upperback -1.8089 1.73543 0.324186
thorax -9.62344 0.478634 -3.79456
lowerneck -20.5702 -2.22821 2.10239
upperneck 3.94839 -4.25399 7.74931
head 4.60637 -1.51139 1.69755
rclavicle 1.43125e-014 -1.70955e-014
rhumerus -18.4846 52.7308 -65.5884
rradius 142.366
rwrist -33.1383
rhand 71.7792 -48.4315
rfingers 7.12502
rthumb 72.8644 24.9745
lclavicle 1.43125e-014 -1.70955e-014
lhumerus -40.5727 -59.4491 88.6177
lradius 141.813
lwrist 28.7426
lhand -3.72407 -38.7469
lfingers 7.12502
lthumb 22.0189 -9.98031
rfemur -15.2269 22.6916 20.1565
rtibia 7.76184
rfoot -11.0136 -24.9344
rtoes -1.06774
lfemur -10.3821 -32.692 -3.5792
ltibia -0.237554
lfoot -10.4822 43.4556
ltoes -0.565372
1279
root 0.234103 17.6454 8.03855 14.7063 -0.659843 -8.43554
lowerback 13.8174 0.488548 7.27063
upperback -1.60011 1.91988 0.296665
thorax -9.30261 0.55125 -4.20463
lowerneck -17.2812 -2.25995 1.63864
upperneck 1.02986 -3.87565 8.56822
head 3.21915 -1.47572 2.08133
rclavicle 3.97569e-016 -3.1408e-014
rhumerus -18.8985 51.7304 -65.6997
rradius 142.346
rwrist -32.9712
rhand 71.6213 -48.8069
rfingers 7.12502
rthumb 72.9389 24.1465
lclavicle 3.97569e-016 -3.1408e-014
lhumerus -37.4228 -59.7316 86.0212
lradius 141.656
lwrist 28.8895
lhand -3.47999 -38.7554
lfingers 7.12502
lthumb 22.2532 -10.0166
rfemur -14.8994 22.6361 20.6717
rtibia 7.74164
rfoot -11.0543 -24.8665
rtoes -1.1889
lfemur -10.0438 -32.5259 -3.40614
ltibia -0.316804
lfoot -10.3982 43.2498
ltoes -0.738539
1280
root 0.241779 17.6357 8.03976 14.349 -0.422694 -9.12822
lowerback 13.7893 0.4977 8.42909
upperback -1.25462 2.11108 0.348295
thorax -8.85129 0.615562 -4.83509
lowerneck -12.84 -2.33535 0.839398
upperneck -3.1783 -3.35834 9.5396
head 1.37472 -1.46249 2.77427
rclavicle -1.2921e-014 -2.66371e-014
rhumerus -18.8078 50.7394 -65.2915
rradius 142.386
rwrist -32.8497
rhand 71.0865 -48.8856
rfingers 7.12502
rthumb 73.1832 22.5055
lclavicle -1.2921e-014 -2.66371e-014
lhumerus -33.0432 -59.9104 82.3201
lradius 141.52
lwrist 29.3065
lhand -2.91981 -38.7466
lfingers 7.12502
lthumb 22.7909 -10.0729
rfemur -14.3379 22.4246 21.743
rtibia 7.66731
rfoot -11.0504 -24.7018
rtoes -1.33639
lfemur -9.52117 -32.38 -2.88174
ltibia -0.456288
lfoot -10.3676 43.0004
ltoes -0.855919
